# xmcd
#
# Track frame offsets: 
#        150
#        11305
#        28615
#        49135
#        65672
#        87737
#        103732
#        121355
#        139645
#        153922
#        168210
#        182612
#        196465
#        213012
#        226587
#        243157
#        264305
#        276537
#        293900
#        306997
#        331410
#
# Disc length: 4795 seconds
#
# Revision: 1
# Processed by: cddbd v1.5.2PL0 Copyright (c) Steve Scherf et al.
# Submitted via: ExactAudioCopy v0.95b4
#
DISCID=2612b915
DTITLE=Various Artist - Rue Des Chansons 2
DYEAR=2003
DGENRE=Chanson
TTITLE0=Bénabar - Monospace
TTITLE1=Raphaël and Jean-Louis Aubert - Sur La Route
TTITLE2=Cali - C'est Quand Le Bonheur
TTITLE3=Thomas Fersen - Le Chat Botté
TTITLE4=Benjamin Biolay - Chaise À Tokyo
TTITLE5=Mickey 3D - Yalil
TTITLE6=Arthur H - Nancy Et Tarzan
TTITLE7=Blankass - La Croisée
TTITLE8=M - Belleville Rendez-Vous
TTITLE9=Mathieu Boogaerts - Quel Été 2000
TTITLE10=Camille - Le Sac Des Filles
TTITLE11=Emilie Simon - Désert
TTITLE12=Marie Kiss La Joue - Valentin
TTITLE13=Sanseverino - Mal O Mains
TTITLE14=Alexis HK - Mitch
TTITLE15=La Fresto - 4 Années
TTITLE16=Normangaby - Rocking Chair
TTITLE17=Fabulous Trobadors - Demain Demain
TTITLE18=Louis - D'apparence En Apparence
TTITLE19=Pascal Parisot - Les Gens Sont Méchants
TTITLE20=DATA
EXTD=Compilation (p) and (c) 2003 EMI Music France
EXTT0=
EXTT1=
EXTT2=
EXTT3=
EXTT4=
EXTT5=
EXTT6=
EXTT7=
EXTT8=
EXTT9=
EXTT10=
EXTT11=
EXTT12=
EXTT13=
EXTT14=
EXTT15=
EXTT16=
EXTT17=
EXTT18=
EXTT19=
EXTT20=
PLAYORDER=
